# xmcd
#
# Track frame offsets:
#	150
#	33787
#	73628
#	151041
#	185097
#	231976
#	250437
#	279781
#	302725
#
# Disc length: 4295 seconds
#
# Revision: 1
# Processed by: cddbd v1.5.2PL0 Copyright (c) Steve Scherf et al.
# Submitted via: audiograbber 1.83.01
#
DISCID=7110c509
DTITLE=Grateful Dead - 80-07-01 San Diego Sports Arena, San Diego CA
DYEAR=1900
DGENRE=
TTITLE0=Uncle John's Band
TTITLE1=Playing In The Band
TTITLE2=Drums
TTITLE3=Truckin'
TTITLE4=Wharf Rat
TTITLE5=Around and Around
TTITLE6=Good Lovin'
TTITLE7=Alabama Getaway
TTITLE8=Johnny B Goode
EXTD=
EXTT0=
EXTT1=
EXTT2=
EXTT3=
EXTT4=
EXTT5=
EXTT6=
EXTT7=
EXTT8=
PLAYORDER=
